<svg width="15" height="15" viewBox="0 0 15 15" fill="none" xmlns="http://www.w3.org/2000/svg">
<g clip-path="url(#clip0_272_292)">
<path d="M5.22541 0.493456C3.72667 1.01338 2.43417 2.00021 1.53774 3.30901C0.641311 4.6178 0.188209 6.17956 0.244988 7.7649C0.301766 9.35024 0.865433 10.8756 1.85319 12.1169C2.84095 13.3582 4.20074 14.25 5.73283 14.6614C6.97493 14.9819 8.27628 14.996 9.52502 14.7024C10.6562 14.4483 11.7021 13.9048 12.5602 13.1251C13.4532 12.2888 14.1015 11.2249 14.4352 10.0478C14.7978 8.76766 14.8623 7.42151 14.6238 6.1126H7.64884V9.00596H11.6883C11.6076 9.46743 11.4346 9.90787 11.1796 10.3009C10.9247 10.694 10.5931 11.0315 10.2047 11.2935C9.7115 11.6199 9.15544 11.8394 8.57228 11.938C7.98745 12.0468 7.38758 12.0468 6.80275 11.938C6.20996 11.8156 5.6492 11.5709 5.15627 11.2196C4.36425 10.659 3.76956 9.86251 3.45705 8.94385C3.13934 8.00797 3.13934 6.9934 3.45705 6.05752C3.6795 5.40152 4.04724 4.80424 4.53283 4.31025C5.08852 3.73457 5.79205 3.32306 6.56621 3.12089C7.34038 2.91872 8.15528 2.93369 8.9215 3.16416C9.52009 3.34782 10.0675 3.66886 10.5199 4.10166C10.9754 3.64853 11.4301 3.19424 11.884 2.73877C12.1184 2.49385 12.3738 2.26064 12.6047 2.00986C11.9139 1.36711 11.1031 0.866938 10.2188 0.537988C8.60826 -0.0467899 6.84608 -0.0625053 5.22541 0.493456Z" fill="white"/>
<path d="M5.2252 0.493293C6.84574 -0.0630461 8.60792 -0.0477444 10.2186 0.536653C11.1031 0.867838 11.9135 1.37042 12.6033 2.01556C12.3689 2.26634 12.1217 2.50072 11.8826 2.74447C11.4279 3.19837 10.9736 3.65072 10.5197 4.1015C10.0673 3.6687 9.51988 3.34766 8.92129 3.164C8.15532 2.93272 7.34045 2.91688 6.56608 3.11823C5.7917 3.31957 5.08775 3.73032 4.53145 4.3054C4.04586 4.79939 3.67812 5.39667 3.45566 6.05267L1.02637 4.17181C1.89591 2.44747 3.40146 1.12848 5.2252 0.493293Z" fill="#E33629"/>
<path d="M0.382126 6.03516C0.512602 5.38801 0.729382 4.76132 1.02666 4.17188L3.45595 6.05742C3.13825 6.9933 3.13825 8.00787 3.45595 8.94375C2.64658 9.56875 1.83681 10.1969 1.02666 10.8281C0.282693 9.34725 0.0557967 7.65996 0.382126 6.03516Z" fill="#F8BD00"/>
<path d="M7.64896 6.11133H14.624C14.8624 7.42024 14.7979 8.76639 14.4353 10.0465C14.1016 11.2236 13.4533 12.2875 12.5603 13.1238C11.7763 12.5121 10.9888 11.9051 10.2048 11.2934C10.5935 11.0312 10.9253 10.6932 11.1802 10.2998C11.4351 9.90629 11.608 9.4654 11.6884 9.00352H7.64896C7.64779 8.04023 7.64896 7.07578 7.64896 6.11133Z" fill="#587DBD"/>
<path d="M1.02539 10.8282C1.83555 10.2032 2.64531 9.5751 3.45469 8.94385C3.76782 9.86283 4.36337 10.6593 5.15625 11.2196C5.65072 11.5693 6.21269 11.8119 6.80625 11.9321C7.39108 12.0409 7.99095 12.0409 8.57578 11.9321C9.15894 11.8336 9.715 11.614 10.2082 11.2876C10.9922 11.8993 11.7797 12.5063 12.5637 13.1181C11.7057 13.8982 10.6599 14.4421 9.52851 14.6966C8.27978 14.9901 6.97843 14.9761 5.73633 14.6556C4.75395 14.3933 3.83634 13.9309 3.04102 13.2974C2.19929 12.6289 1.51176 11.7867 1.02539 10.8282Z" fill="#319F43"/>
</g>
<defs>
<clipPath id="clip0_272_292">
<rect width="15" height="15" fill="white"/>
</clipPath>
</defs>
</svg>
