<svg xmlns="http://www.w3.org/2000/svg" width="3045.057" height="343.574" viewBox="0 0 3045.057 343.574">
  <g id="Horizontal_Logo_-_Dark" data-name="Horizontal Logo - Dark" transform="translate(10465.173 7296.816)">
    <g id="logo.e945e23b0d0b04207de791d7683d89ee" transform="translate(-10465.173 -7296.815)">
      <path id="Path_1" data-name="Path 1" d="M601.97,0c8.248,0,12.13,5.157,11.16,13.465L609.6,36.379A59.725,59.725,0,0,1,550.563,87l-90.759-.01-19.687,0A160.506,160.506,0,0,0,319.61,141.48l-70.694,80.357a57.893,57.893,0,0,1-43.466,19.652,50.346,50.346,0,0,1-41.209-21.425l-15.754-22.442a21.281,21.281,0,0,0-38.481,9.168L97.58,292.427a59.724,59.724,0,0,1-59.105,51.147H11.44c-8.248,0-12.614-3.91-11.16-12.218L41.8,79.023q.868-5.276,7.258-37.347a49.319,49.319,0,0,1,91.258-14.713l49.733,87.6a22.4,22.4,0,0,0,36.2,3.845L281.69,56.2A167.975,167.975,0,0,1,407.08,0ZM557.817,153.9c8.248,0,12.13,4.887,11.16,13.2l-3.558,23.144a59.724,59.724,0,0,1-59.028,50.653h-48.64a22.4,22.4,0,0,0-22.15,19.082l-4.757,31.749a59.664,59.664,0,0,1-59.006,50.827H344.329c-8.248,0-12.13-4.887-11.16-13.2l11.481-82.093A108.385,108.385,0,0,1,450.588,153.9Z" transform="translate(-0.004)"/>
    </g>
    <g id="logo.e945e23b0d0b04207de791d7683d89ee-2" data-name="logo.e945e23b0d0b04207de791d7683d89ee" transform="translate(-9594.495 -7296.816)">
      <path id="Path_2" data-name="Path 2" d="M96.173,292.542l5.613-39.229a14.863,14.863,0,0,1,28.507-3.43l16.16,40.27A41.512,41.512,0,0,0,184.98,316.2a53.946,53.946,0,0,0,44.182-22.991l30.022-42.849A14.863,14.863,0,0,1,286.1,260.8l-9.015,69.575c-.967,7.819,2.9,13.2,11.13,13.2h24.62a59.454,59.454,0,0,0,59.052-52.561l32.466-278.3C405.318,4.888,400.962,0,392.736,0h-35.81c-6.291,0-10.644,2.445-14.517,7.821L223.816,176.883a22.294,22.294,0,0,1-38.96-4.542L119.805,9.288C117.385,2.933,112.546,0,105.771,0H66.089A14.178,14.178,0,0,0,52.055,11.729L.276,331.355c-1.452,8.308,2.9,12.218,11.13,12.218H37.321a59.454,59.454,0,0,0,58.853-51.029Zm461.2,22.2,8.693-16.791a22.3,22.3,0,0,1,19.8-12.044h86.506A14.863,14.863,0,0,1,686.828,297.3l8.88,36.989c1.452,6.353,6.291,9.286,13.066,9.286h30.378A40.873,40.873,0,0,0,778.516,291.7L699.576,9.286C697.644,2.933,693.772,0,687,0H651.671c-6.775,0-11.614,2.933-15,9.286L456.166,329.4c-4.839,8.8-1.452,14.173,7.743,14.173h46.07a53.378,53.378,0,0,0,47.4-28.834Zm103.563-99.211H620.025a11.148,11.148,0,0,1-9.81-16.441l27.545-51.043a11.147,11.147,0,0,1,20.594,2.469l13.371,51.043a11.148,11.148,0,0,1-10.783,13.972Zm344.994,128.045c133.075,0,210.022-81.128,210.022-196.465C1215.958,58.647,1157.891,0,1053.849,0H938.675c-7.259,0-11.614,3.421-12.582,11.241L881.572,330.377c-.968,8.309,2.9,13.2,11.614,13.2Zm21.292-82.105h-26.5A14.865,14.865,0,0,1,986,244.578l19.707-143.217a22.3,22.3,0,0,1,22.086-19.256h19.279c49.844,0,73.556,29.812,73.556,74.775,0,61.09-35.81,104.586-93.4,104.586Zm370.832,31.278,4-28.439a26.01,26.01,0,0,1,25.756-22.389h45.531a59.454,59.454,0,0,0,58.882-51.227l3.154-22.572c.968-8.309-2.9-13.2-11.13-13.2h-89.933a14.863,14.863,0,0,1-14.728-16.857l3.864-28.554a26.01,26.01,0,0,1,25.775-22.522h68.135a59.454,59.454,0,0,0,58.872-51.165l3.186-22.632c.97-8.306-2.9-13.194-11.128-13.194H1357.3c-7.258,0-11.614,3.421-12.582,11.241L1300.2,330.376c-.968,8.309,2.9,13.2,11.129,13.2h28.261a59.05,59.05,0,0,0,58.474-50.827Zm341.254-.393L1778.345,13.2c.972-8.309-2.9-13.2-11.127-13.2h-68.232c-7.259,0-11.614,3.421-12.582,11.241l-44.521,319.136c-.968,8.308,2.9,13.2,11.13,13.2h27.423a59.455,59.455,0,0,0,58.882-51.221Zm291.406-.024,26.63-191.007a22.294,22.294,0,0,1,22.081-19.217h33.4a59.454,59.454,0,0,0,58.859-51.072l2.539-17.838c.969-8.309-2.9-13.2-11.129-13.2H1887.752c-7.259,0-11.615,3.421-12.582,11.241l-8.228,57.666c-.968,8.309,2.9,13.2,11.13,13.2h72.463A14.862,14.862,0,0,1,1965.258,99l-32.017,231.375c-.968,8.308,2.9,13.2,11.13,13.2h27.466a59.454,59.454,0,0,0,58.882-51.241Z" transform="translate(0 0)"/>
    </g>
  </g>
</svg>
