<svg width="1872" height="556" viewBox="0 0 1872 556" fill="none" xmlns="http://www.w3.org/2000/svg">
<g clip-path="url(#clip0_944_2)">
<path d="M1805.4 556H65.5755C29.4251 556 0 526.421 0 490.211V65.6914C0 29.468 29.4251 0 65.5755 0H1805.4C1841.54 0 1872 29.468 1872 65.6914V490.211C1872 526.421 1841.54 556 1805.4 556Z" fill="#A6A6A6"/>
<path d="M1858.58 490.225C1858.58 519.638 1834.81 543.462 1805.41 543.462H65.5759C36.1925 543.462 12.3418 519.638 12.3418 490.225V65.6776C12.3418 36.2791 36.1925 12.3711 65.5759 12.3711H1805.4C1834.81 12.3711 1858.56 36.2791 1858.56 65.6776L1858.58 490.225Z" fill="black"/>
<path d="M417.775 274.998C417.373 230.198 454.369 208.403 456.061 207.388C435.108 176.766 402.632 172.583 391.22 172.249C363.944 169.372 337.487 188.609 323.592 188.609C309.421 188.609 288.024 172.527 264.964 173C235.289 173.458 207.528 190.68 192.303 217.424C160.881 271.954 184.316 352.087 214.42 396.164C229.479 417.751 247.076 441.853 270.109 441.005C292.642 440.074 301.059 426.605 328.252 426.605C355.194 426.605 363.098 441.005 386.589 440.463C410.772 440.074 425.998 418.779 440.53 396.998C457.933 372.256 464.921 347.889 465.199 346.638C464.63 346.444 418.232 328.693 417.775 274.998Z" fill="white"/>
<path d="M373.401 143.254C385.52 128.061 393.813 107.392 391.511 86.4165C373.97 87.1949 352.032 98.579 339.4 113.438C328.223 126.532 318.239 147.994 320.819 168.176C340.523 169.65 360.755 158.21 373.401 143.254Z" fill="white"/>
<path d="M743.878 437.906H712.387L695.137 383.57H635.177L618.745 437.906H588.086L647.491 252.924H684.182L743.878 437.906ZM689.937 360.774L674.337 312.472C672.686 307.537 669.594 295.917 665.032 277.625H664.477C662.661 285.492 659.735 297.112 655.714 312.472L640.391 360.774H689.937Z" fill="white"/>
<path d="M896.648 369.573C896.648 392.258 890.533 410.189 878.302 423.352C867.347 435.07 853.744 440.922 837.506 440.922C819.979 440.922 807.388 434.611 799.72 421.99H799.165V492.255H769.601V348.431C769.601 334.17 769.227 319.533 768.506 304.521H794.506L796.156 325.663H796.711C806.57 309.734 821.532 301.783 841.611 301.783C857.308 301.783 870.412 307.996 880.895 320.437C891.406 332.891 896.648 349.265 896.648 369.573ZM866.529 370.657C866.529 357.675 863.617 346.972 857.766 338.548C851.373 329.764 842.79 325.371 832.029 325.371C824.735 325.371 818.107 327.818 812.186 332.641C806.251 337.506 802.368 343.858 800.552 351.726C799.636 355.395 799.179 358.398 799.179 360.761V383.001C799.179 392.703 802.146 400.89 808.081 407.576C814.016 414.262 821.726 417.598 831.211 417.598C842.346 417.598 851.013 413.289 857.211 404.699C863.423 396.094 866.529 384.752 866.529 370.657Z" fill="white"/>
<path d="M1049.69 369.573C1049.69 392.258 1043.58 410.189 1031.33 423.352C1020.39 435.07 1006.79 440.922 990.551 440.922C973.024 440.922 960.433 434.611 952.778 421.99H952.224V492.255H922.66V348.431C922.66 334.17 922.286 319.533 921.564 304.521H947.564L949.215 325.663H949.769C959.615 309.734 974.577 301.783 994.67 301.783C1010.35 301.783 1023.46 307.996 1033.97 320.437C1044.44 332.891 1049.69 349.265 1049.69 369.573ZM1019.57 370.657C1019.57 357.675 1016.65 346.972 1010.8 338.548C1004.4 329.764 995.848 325.371 985.074 325.371C977.766 325.371 971.152 327.818 965.217 332.641C959.282 337.506 955.413 343.858 953.596 351.726C952.695 355.395 952.224 358.398 952.224 360.761V383.001C952.224 392.703 955.191 400.89 961.098 407.576C967.033 414.248 974.743 417.598 984.256 417.598C995.391 417.598 1004.06 413.289 1010.26 404.699C1016.47 396.094 1019.57 384.752 1019.57 370.657Z" fill="white"/>
<path d="M1220.81 386.031C1220.81 401.766 1215.36 414.567 1204.42 424.45C1192.39 435.251 1175.66 440.644 1154.15 440.644C1134.29 440.644 1118.37 436.807 1106.32 429.121L1113.17 404.42C1126.15 412.288 1140.39 416.235 1155.91 416.235C1167.05 416.235 1175.71 413.706 1181.94 408.674C1188.14 403.642 1191.23 396.887 1191.23 388.463C1191.23 380.957 1188.68 374.633 1183.56 369.504C1178.47 364.375 1169.97 359.607 1158.1 355.201C1125.79 343.121 1109.65 325.427 1109.65 302.158C1109.65 286.952 1115.31 274.483 1126.64 264.781C1137.93 255.065 1152.99 250.214 1171.82 250.214C1188.61 250.214 1202.56 253.147 1213.69 258.999L1206.3 283.157C1195.9 277.486 1184.14 274.65 1170.98 274.65C1160.58 274.65 1152.46 277.222 1146.63 282.337C1141.71 286.91 1139.24 292.484 1139.24 299.086C1139.24 306.398 1142.06 312.444 1147.72 317.198C1152.64 321.59 1161.58 326.344 1174.56 331.473C1190.44 337.881 1202.1 345.373 1209.6 353.963C1217.08 362.526 1220.81 373.243 1220.81 386.031Z" fill="white"/>
<path d="M1318.55 326.761H1285.97V391.521C1285.97 407.993 1291.71 416.221 1303.22 416.221C1308.5 416.221 1312.88 415.763 1316.35 414.845L1317.17 437.349C1311.34 439.532 1303.68 440.63 1294.18 440.63C1282.5 440.63 1273.38 437.058 1266.79 429.927C1260.23 422.782 1256.93 410.8 1256.93 393.968V326.733H1237.52V304.493H1256.93V280.071L1285.97 271.286V304.493H1318.55V326.761Z" fill="white"/>
<path d="M1469.1 374.686C1469.1 395.188 1463.25 412.021 1451.57 425.185C1439.33 438.737 1423.08 445.493 1402.82 445.493C1383.3 445.493 1367.75 439.001 1356.16 426.019C1344.57 413.036 1338.77 396.648 1338.77 376.896C1338.77 356.227 1344.73 339.297 1356.7 326.133C1368.64 312.956 1384.75 306.367 1405.01 306.367C1424.53 306.367 1440.25 312.859 1452.1 325.855C1463.44 338.463 1469.1 354.739 1469.1 374.686ZM1438.43 375.645C1438.43 363.344 1435.81 352.793 1430.5 343.995C1424.3 333.347 1415.44 328.038 1403.96 328.038C1392.07 328.038 1383.05 333.361 1376.85 343.995C1371.54 352.807 1368.92 363.524 1368.92 376.201C1368.92 388.503 1371.54 399.053 1376.85 407.837C1383.24 418.485 1392.17 423.795 1403.69 423.795C1414.98 423.795 1423.84 418.374 1430.23 407.559C1435.68 398.594 1438.43 387.933 1438.43 375.645Z" fill="white"/>
<path d="M1561.68 330.584C1558.75 330.042 1555.63 329.764 1552.36 329.764C1541.96 329.764 1533.92 333.697 1528.26 341.579C1523.34 348.529 1520.87 357.313 1520.87 367.919V437.906H1491.32L1491.6 346.527C1491.6 331.154 1491.22 317.156 1490.49 304.535H1516.24L1517.32 330.056H1518.14C1521.26 321.285 1526.18 314.223 1532.92 308.928C1539.5 304.16 1546.62 301.783 1554.29 301.783C1557.02 301.783 1559.49 301.978 1561.68 302.325V330.584Z" fill="white"/>
<path d="M1693.9 364.903C1693.9 370.213 1693.55 374.688 1692.82 378.344H1604.12C1604.47 391.521 1608.76 401.599 1616.99 408.549C1624.47 414.762 1634.13 417.876 1646 417.876C1659.13 417.876 1671.11 415.777 1681.89 411.565L1686.52 432.137C1673.93 437.642 1659.06 440.38 1641.91 440.38C1621.28 440.38 1605.08 434.292 1593.29 422.129C1581.54 409.967 1575.64 393.634 1575.64 373.145C1575.64 353.032 1581.12 336.283 1592.09 322.925C1603.57 308.663 1619.09 301.533 1638.61 301.533C1657.79 301.533 1672.31 308.663 1682.17 322.925C1689.97 334.253 1693.9 348.265 1693.9 364.903ZM1665.71 357.216C1665.9 348.431 1663.97 340.842 1659.97 334.434C1654.85 326.191 1646.99 322.077 1636.41 322.077C1626.74 322.077 1618.88 326.094 1612.87 334.156C1607.95 340.564 1605.03 348.251 1604.12 357.202L1665.71 357.216Z" fill="white"/>
<path d="M680.16 139.125C680.16 155.485 675.265 167.801 665.489 176.071C656.434 183.702 643.566 187.525 626.898 187.525C618.634 187.525 611.562 187.163 605.641 186.44V97.0496C613.364 95.7986 621.684 95.1592 630.67 95.1592C646.547 95.1592 658.514 98.6203 666.585 105.542C675.626 113.368 680.16 124.558 680.16 139.125ZM664.837 139.528C664.837 128.922 662.036 120.791 656.434 115.12C650.832 109.462 642.651 106.627 631.876 106.627C627.3 106.627 623.404 106.932 620.173 107.572V175.529C621.962 175.807 625.234 175.932 629.991 175.932C641.112 175.932 649.695 172.832 655.741 166.633C661.787 160.434 664.837 151.399 664.837 139.528Z" fill="white"/>
<path d="M761.405 153.414C761.405 163.492 758.535 171.749 752.794 178.226C746.776 184.884 738.803 188.206 728.846 188.206C719.251 188.206 711.61 185.023 705.911 178.629C700.226 172.249 697.383 164.201 697.383 154.499C697.383 144.352 700.309 136.026 706.188 129.562C712.068 123.099 719.972 119.86 729.928 119.86C739.524 119.86 747.233 123.043 753.071 129.423C758.618 135.622 761.405 143.629 761.405 153.414ZM746.332 153.887C746.332 147.841 745.029 142.656 742.436 138.333C739.385 133.107 735.045 130.493 729.401 130.493C723.563 130.493 719.126 133.107 716.075 138.333C713.468 142.656 712.179 147.924 712.179 154.151C712.179 160.198 713.482 165.382 716.075 169.705C719.223 174.932 723.605 177.545 729.262 177.545C734.809 177.545 739.163 174.89 742.297 169.566C744.987 165.16 746.332 159.934 746.332 153.887Z" fill="white"/>
<path d="M870.342 121.194L849.889 186.719H836.577L828.104 158.266C825.955 151.163 824.208 144.102 822.849 137.096H822.585C821.323 144.296 819.576 151.343 817.33 158.266L808.33 186.719H794.866L775.633 121.194H790.567L797.958 152.344C799.747 159.711 801.217 166.731 802.395 173.375H802.659C803.741 167.898 805.529 160.921 808.053 152.483L817.33 121.208H829.172L838.061 151.816C840.21 159.28 841.957 166.467 843.302 173.389H843.704C844.689 166.647 846.173 159.461 848.142 151.816L856.073 121.208H870.342V121.194Z" fill="white"/>
<path d="M945.68 186.719H931.148V149.189C931.148 137.624 926.766 131.841 917.974 131.841C913.662 131.841 910.181 133.426 907.477 136.609C904.801 139.792 903.442 143.545 903.442 147.84V186.705H888.91V139.917C888.91 134.163 888.729 127.922 888.383 121.166H901.154L901.833 131.41H902.236C903.927 128.227 906.451 125.6 909.765 123.501C913.703 121.055 918.113 119.818 922.939 119.818C929.04 119.818 934.115 121.792 938.15 125.753C943.17 130.604 945.68 137.846 945.68 147.465V186.719Z" fill="white"/>
<path d="M985.753 186.719H971.234V91.1284H985.753V186.719Z" fill="white"/>
<path d="M1071.31 153.414C1071.31 163.492 1068.44 171.749 1062.7 178.226C1056.68 184.884 1048.69 188.206 1038.75 188.206C1029.14 188.206 1021.5 185.023 1015.82 178.629C1010.13 172.249 1007.29 164.201 1007.29 154.499C1007.29 144.352 1010.21 136.026 1016.09 129.562C1021.97 123.099 1029.88 119.86 1039.82 119.86C1049.43 119.86 1057.13 123.043 1062.98 129.423C1068.52 135.622 1071.31 143.629 1071.31 153.414ZM1056.22 153.887C1056.22 147.841 1054.92 142.656 1052.33 138.333C1049.29 133.107 1044.94 130.493 1039.31 130.493C1033.46 130.493 1029.02 133.107 1025.98 138.333C1023.37 142.656 1022.08 147.924 1022.08 154.151C1022.08 160.198 1023.39 165.382 1025.98 169.705C1029.13 174.932 1033.51 177.545 1039.17 177.545C1044.72 177.545 1049.06 174.89 1052.19 169.566C1054.89 165.16 1056.22 159.934 1056.22 153.887Z" fill="white"/>
<path d="M1141.64 186.719H1128.59L1127.51 179.171H1127.11C1122.65 185.19 1116.28 188.206 1108.02 188.206C1101.85 188.206 1096.85 186.218 1093.1 182.271C1089.68 178.685 1087.98 174.223 1087.98 168.927C1087.98 160.92 1091.31 154.818 1098 150.593C1104.69 146.367 1114.09 144.296 1126.2 144.393V143.17C1126.2 134.538 1121.67 130.229 1112.62 130.229C1106.17 130.229 1100.49 131.856 1095.58 135.08L1092.62 125.517C1098.7 121.75 1106.2 119.86 1115.05 119.86C1132.13 119.86 1140.7 128.895 1140.7 146.965V171.095C1140.7 177.642 1141.02 182.855 1141.64 186.719ZM1126.56 164.201V154.096C1110.53 153.818 1102.51 158.224 1102.51 167.301C1102.51 170.72 1103.43 173.278 1105.3 174.987C1107.17 176.697 1109.56 177.545 1112.4 177.545C1115.59 177.545 1118.57 176.53 1121.29 174.515C1124.02 172.485 1125.7 169.914 1126.32 166.758C1126.47 166.05 1126.56 165.188 1126.56 164.201Z" fill="white"/>
<path d="M1224.22 186.719H1211.32L1210.64 176.196H1210.24C1206.12 184.203 1199.11 188.206 1189.25 188.206C1181.37 188.206 1174.81 185.106 1169.61 178.907C1164.41 172.708 1161.82 164.659 1161.82 154.777C1161.82 144.171 1164.63 135.581 1170.29 129.02C1175.77 122.904 1182.48 119.846 1190.47 119.846C1199.24 119.846 1205.39 122.807 1208.88 128.742H1209.16V91.1284H1223.71V169.066C1223.71 175.446 1223.87 181.326 1224.22 186.719ZM1209.16 159.086V148.16C1209.16 146.27 1209.02 144.741 1208.76 143.573C1207.94 140.07 1206.18 137.124 1203.5 134.747C1200.8 132.37 1197.54 131.174 1193.78 131.174C1188.36 131.174 1184.12 133.329 1181 137.652C1177.9 141.975 1176.34 147.493 1176.34 154.234C1176.34 160.712 1177.82 165.966 1180.8 170.011C1183.95 174.32 1188.19 176.474 1193.5 176.474C1198.27 176.474 1202.09 174.681 1204.99 171.081C1207.79 167.759 1209.16 163.756 1209.16 159.086Z" fill="white"/>
<path d="M1348.5 153.414C1348.5 163.492 1345.63 171.749 1339.89 178.226C1333.88 184.884 1325.92 188.206 1315.95 188.206C1306.36 188.206 1298.72 185.023 1293.01 178.629C1287.33 172.249 1284.48 164.201 1284.48 154.499C1284.48 144.352 1287.41 136.026 1293.29 129.562C1299.17 123.099 1307.07 119.86 1317.04 119.86C1326.62 119.86 1334.35 123.043 1340.17 129.423C1345.72 135.622 1348.5 143.629 1348.5 153.414ZM1333.45 153.887C1333.45 147.841 1332.14 142.656 1329.55 138.333C1326.48 133.107 1322.16 130.493 1316.5 130.493C1310.68 130.493 1306.24 133.107 1303.17 138.333C1300.57 142.656 1299.28 147.924 1299.28 154.151C1299.28 160.198 1300.58 165.382 1303.17 169.705C1306.32 174.932 1310.7 177.545 1316.36 177.545C1321.91 177.545 1326.28 174.89 1329.41 169.566C1332.09 165.16 1333.45 159.934 1333.45 153.887Z" fill="white"/>
<path d="M1426.64 186.719H1412.13V149.189C1412.13 137.624 1407.74 131.841 1398.94 131.841C1394.63 131.841 1391.15 133.426 1388.46 136.609C1385.77 139.792 1384.42 143.545 1384.42 147.84V186.705H1369.87V139.917C1369.87 134.163 1369.71 127.922 1369.36 121.166H1382.12L1382.8 131.41H1383.2C1384.91 128.227 1387.43 125.6 1390.73 123.501C1394.68 121.055 1399.08 119.818 1403.92 119.818C1410 119.818 1415.08 121.792 1419.11 125.753C1424.15 130.604 1426.64 137.846 1426.64 147.465V186.719Z" fill="white"/>
<path d="M1524.45 132.106H1508.44V163.937C1508.44 172.026 1511.29 176.071 1516.92 176.071C1519.52 176.071 1521.69 175.849 1523.39 175.39L1523.77 186.441C1520.9 187.525 1517.12 188.067 1512.48 188.067C1506.74 188.067 1502.27 186.316 1499.04 182.813C1495.8 179.31 1494.19 173.416 1494.19 165.146V132.106H1484.63V121.194H1494.19V109.184L1508.43 104.875V121.18H1524.43L1524.45 132.106Z" fill="white"/>
<path d="M1601.38 186.719H1586.83V149.467C1586.83 137.721 1582.45 131.842 1573.67 131.842C1566.93 131.842 1562.33 135.247 1559.81 142.058C1559.38 143.49 1559.13 145.241 1559.13 147.298V186.705H1544.61V91.1284H1559.13V130.618H1559.4C1563.98 123.432 1570.54 119.846 1579.04 119.846C1585.06 119.846 1590.03 121.82 1593.99 125.781C1598.91 130.716 1601.38 138.055 1601.38 147.757V186.719Z" fill="white"/>
<path d="M1680.74 150.857C1680.74 153.47 1680.54 155.666 1680.2 157.459H1636.61C1636.81 163.937 1638.89 168.871 1642.92 172.291C1646.61 175.349 1651.37 176.878 1657.19 176.878C1663.64 176.878 1669.52 175.849 1674.82 173.778L1677.09 183.897C1670.89 186.594 1663.6 187.942 1655.15 187.942C1645.03 187.942 1637.06 184.954 1631.29 178.977C1625.49 173 1622.62 164.979 1622.62 154.916C1622.62 145.033 1625.3 136.804 1630.69 130.243C1636.32 123.238 1643.93 119.735 1653.54 119.735C1662.95 119.735 1670.09 123.238 1674.91 130.243C1678.81 135.803 1680.74 142.684 1680.74 150.857ZM1666.87 147.09C1666.98 142.767 1666.02 139.042 1664.05 135.901C1661.53 131.856 1657.69 129.826 1652.49 129.826C1647.75 129.826 1643.88 131.8 1640.93 135.762C1638.51 138.917 1637.08 142.684 1636.61 147.09H1666.87Z" fill="white"/>
</g>
<defs>
<clipPath id="clip0_944_2">
<rect width="1872" height="556" fill="white"/>
</clipPath>
</defs>
</svg>
