<svg xmlns="http://www.w3.org/2000/svg" width="1522.528" height="852.966" viewBox="0 0 1522.528 852.966">
  <g id="Glyph_-_Dark" data-name="Glyph - Dark" transform="translate(-0.004)">
    <path id="Path_1" data-name="Path 1" d="M1494.464.011c20.478,0,30.114,12.8,27.706,33.429L1513.4,90.317A148.274,148.274,0,0,1,1366.84,215.981l-225.32-.025-48.875.008A398.477,398.477,0,0,0,793.468,351.243L617.96,550.738a143.726,143.726,0,0,1-107.911,48.789,124.991,124.991,0,0,1-102.307-53.191l-39.11-55.715a52.833,52.833,0,0,0-95.534,22.76L242.249,725.988A148.273,148.273,0,0,1,95.512,852.966H28.4c-20.478,0-31.317-9.707-27.706-30.333L103.768,196.185q2.155-13.1,18.019-92.718a122.44,122.44,0,0,1,226.56-36.526L471.815,284.414a55.6,55.6,0,0,0,89.86,9.546L699.328,139.534A417.02,417.02,0,0,1,1010.623,0ZM1384.846,382.073c20.478,0,30.114,12.133,27.706,32.759l-8.832,57.458a148.272,148.272,0,0,1-146.546,125.753H1136.42a55.6,55.6,0,0,0-54.99,47.375l-11.81,78.821A148.124,148.124,0,0,1,923.13,850.424H854.836c-20.478,0-30.114-12.132-27.706-32.759l28.5-203.806a269.079,269.079,0,0,1,263.006-231.785Z" transform="translate(0)"/>
  </g>
</svg>
